<svg xmlns="http://www.w3.org/2000/svg" width="28.925" height="15.354" viewBox="0 0 31.925 18.354">
  <g id="Path_1" data-name="Path 1" fill="#fefefe">
    <path d="M 26.21270179748535 17.84053039550781 C 26.01411628723145 17.77048683166504 25.65091133117676 17.43423080444336 25.40143585205078 17.20327568054199 C 25.02138710021973 16.85143280029297 24.59141540527344 16.45334815979004 24.10313034057617 16.22282791137695 C 23.54074096679688 15.90084838867188 22.82686233520508 15.70909595489502 22.18818473815918 15.70909595489502 C 21.97484588623047 15.70909595489502 21.76773452758789 15.72966575622559 21.5726261138916 15.77023601531982 C 19.98288536071777 16.10565567016602 17.93862533569336 16.29785537719727 15.96258544921875 16.29785537719727 C 11.77847576141357 16.29785537719727 7.85260534286499 15.44463634490967 4.90815544128418 13.89537620544434 C 2.065515518188477 12.39968585968018 0.5000054240226746 10.44767570495605 0.5000054240226746 8.39892578125 C 0.5000054240226746 6.350176334381104 2.065515518188477 4.398166179656982 4.90815544128418 2.902476072311401 C 7.85260534286499 1.353216171264648 11.77847576141357 0.4999961256980896 15.96258544921875 0.4999961256980896 C 20.14669609069824 0.4999961256980896 24.07256507873535 1.353216171264648 27.01701545715332 2.902476072311401 C 29.85966491699219 4.398166179656982 31.42517471313477 6.350176334381104 31.42517471313477 8.39892578125 C 31.42517471313477 9.593766212463379 30.87422561645508 10.72539615631104 29.69128608703613 11.96020603179932 L 29.68843460083008 11.96318626403809 L 29.68562507629395 11.96621608734131 C 29.55951499938965 12.10228633880615 29.21634483337402 12.41451644897461 28.82874488830566 12.7251558303833 C 28.29437637329102 13.15706634521484 28.24374580383301 13.18673610687256 27.02151489257813 13.7847261428833 L 26.9393253326416 13.82493591308594 L 26.87670516967773 13.89164638519287 C 26.75595474243164 14.02028656005859 26.74588584899902 14.15142631530762 26.73779487609863 14.25679588317871 C 26.5662784576416 16.49057579040527 26.34135246276855 17.51507377624512 26.21270179748535 17.84053039550781 Z" stroke="none"/>
    <path d="M 15.96258544921875 0.9999961853027344 C 11.85812568664551 0.9999961853027344 8.014934539794922 1.832786560058594 5.140975952148438 3.344956398010254 C 3.796895980834961 4.052165985107422 2.751495361328125 4.863426208496094 2.033815383911133 5.756216049194336 C 1.34782600402832 6.609576225280762 0.9999961853027344 7.498716354370117 0.9999961853027344 8.39892578125 C 0.9999961853027344 9.299136161804199 1.34782600402832 10.18827629089355 2.033815383911133 11.04163551330566 C 2.751495361328125 11.93442630767822 3.796895980834961 12.74568557739258 5.140975952148438 13.45289611816406 C 8.014934539794922 14.96506595611572 11.85812568664551 15.79785633087158 15.96258544921875 15.79785633087158 C 17.90546417236328 15.79785633087158 19.91210556030273 15.60958671569824 21.4708366394043 15.28070640563965 C 21.69935607910156 15.23318576812744 21.94070434570313 15.20909595489502 22.18818664550781 15.20909595489502 C 22.91468238830566 15.20909595489502 23.69420051574707 15.41653442382813 24.33474349975586 15.77932357788086 C 24.88432884216309 16.04315185546875 25.33885383605957 16.46393775939941 25.74114608764648 16.83634567260742 C 25.79310989379883 16.88445281982422 25.85173034667969 16.93872261047363 25.91238784790039 16.99384880065918 C 26.01514053344727 16.4461555480957 26.13648414611816 15.55693054199219 26.23925590515137 14.21851634979248 C 26.24952507019043 14.08476638793945 26.27089500427246 13.80645561218262 26.51216506958008 13.54944610595703 L 26.63740539550781 13.41602611541748 L 26.8017749786377 13.33560562133789 C 28.00858497619629 12.74515628814697 28.01803588867188 12.73751640319824 28.51604461669922 12.33499622344971 C 28.90773582458496 12.02107620239258 29.22133636474609 11.73161602020264 29.31891632080078 11.62633609771729 L 29.32452583312988 11.62027549743652 L 29.33023452758789 11.61432647705078 C 30.43326568603516 10.46290588378906 30.9251651763916 9.471236228942871 30.9251651763916 8.39892578125 C 30.9251651763916 7.498716354370117 30.57733535766602 6.609576225280762 29.8913459777832 5.756216049194336 C 29.17367553710938 4.863426208496094 28.12827491760254 4.052165985107422 26.78419494628906 3.344956398010254 C 23.91023635864258 1.832786560058594 20.06704521179199 0.9999961853027344 15.96258544921875 0.9999961853027344 M 15.96258544921875 -3.814697265625e-06 C 24.77847480773926 -3.814697265625e-06 31.9251651763916 3.760326385498047 31.9251651763916 8.39892578125 C 31.9251651763916 9.706135749816895 31.35760498046875 10.9435863494873 30.05234527587891 12.30609607696533 C 29.90642547607422 12.46353626251221 29.54597473144531 12.79109573364258 29.14143562316895 13.11531639099121 C 28.56396484375 13.58206558227539 28.47110557556152 13.63213634490967 27.24125480651855 14.23385620117188 C 27.23788452148438 14.23744583129883 26.98446655273438 18.03737640380859 26.48807525634766 18.30905532836914 C 26.41913604736328 18.33956146240234 26.34882354736328 18.35360717773438 26.27732276916504 18.35360717773438 C 25.60028266906738 18.35360717773438 24.80717849731445 17.0969352722168 23.87204551696777 16.66675567626953 C 23.42237091064453 16.40506935119629 22.79849815368652 16.2090950012207 22.18818664550781 16.2090950012207 C 22.01435852050781 16.2090950012207 21.84172630310059 16.2249755859375 21.67441558837891 16.259765625 C 20.2066764831543 16.5694465637207 18.13532638549805 16.79785537719727 15.96258544921875 16.79785537719727 C 7.146696090698242 16.79785537719727 -3.814697265625e-06 13.03752613067627 -3.814697265625e-06 8.39892578125 C -3.814697265625e-06 3.760326385498047 7.146696090698242 -3.814697265625e-06 15.96258544921875 -3.814697265625e-06 Z" stroke="none" fill="#6b6565"/>
  </g>
</svg>
